#!OML:ASF F:\VICON\USERDATA\INSTALL\rory3\rory3.ASF
:FULLY-SPECIFIED
:DEGREES
70
root 2.06102 17.3501 10.8591 3.26412 -7.02477 -3.07261
lowerback 17.6404 -1.4577 2.15899
upperback 2.35407 -1.38322 1.67304
thorax -7.36337 -0.710468 0.894559
lowerneck -2.73573 2.52548 -0.664997
upperneck -14.0923 3.39207 0.0943383
head -4.14216 1.69691 0.0546763
rclavicle 9.74045e-015 -9.44227e-015
rhumerus -40.4892 6.81432 -86.5795
rradius 88.9915
rwrist -6.03764
rhand -35.3872 29.9569
rfingers 7.12502
rthumb -8.51849 0.14873
lclavicle 9.74045e-015 -9.44227e-015
lhumerus -44.4892 -14.6124 95.4809
lradius 108.151
lwrist 28.6259
lhand -35.4738 10.3939
lfingers 7.12502
lthumb -8.60204 40.1986
rfemur -20.4129 7.84524 30.0963
rtibia 41.5374
rfoot -14.4497 -6.76677
rtoes 4.76427
lfemur -9.10351 11.2547 -10.2022
ltibia 103.13
lfoot 15.395 -8.71864
ltoes -11.4539
71
root 2.04615 17.3082 11.3031 3.38637 -6.27824 -2.92562
lowerback 17.9124 -1.56133 1.99835
upperback 2.27866 -1.54285 1.60844
thorax -7.59149 -0.783433 0.964043
lowerneck -1.90152 2.39382 -0.393251
upperneck -15.0648 3.20316 -0.0514437
head -4.65199 1.59235 -0.0570834
rclavicle 5.8393e-015 7.95139e-016
rhumerus -38.1739 8.03582 -87.2063
rradius 90.2374
rwrist -6.877
rhand -34.6598 28.9985
rfingers 7.12502
rthumb -7.81647 -0.837057
lclavicle 5.8393e-015 7.95139e-016
lhumerus -46.1143 -13.5231 95.4297
lradius 107.775
lwrist 29.3083
lhand -36.2752 11.0121
lfingers 7.12502
lthumb -9.37537 40.7836
rfemur -19.0836 6.89946 30.0135
rtibia 41.8288
rfoot -16.2906 -6.28692
rtoes 1.58094
lfemur -13.0877 10.6835 -10.3123
ltibia 105.84
lfoot 14.6505 -9.52597
ltoes -10.7134
72
root 2.03505 17.2713 11.746 3.44438 -5.32237 -2.64481
lowerback 18.1205 -1.6917 1.80375
upperback 2.25405 -1.74966 1.53071
thorax -7.72858 -0.877586 1.04815
lowerneck -1.60606 2.25364 -0.351061
upperneck -15.4027 3.0184 -0.0356762
head -4.83567 1.49742 -0.0600682
rclavicle 1.87106e-014 2.24627e-014
rhumerus -35.9202 9.29269 -87.6727
rradius 91.5849
rwrist -7.71422
rhand -34.339 28.288
rfingers 7.12502
rthumb -7.50679 -1.55881
lclavicle 1.87106e-014 2.24627e-014
lhumerus -47.5684 -12.6652 95.4803
lradius 107.439
lwrist 30.0252
lhand -37.5241 13.2744
lfingers 7.12502
lthumb -10.5803 42.9881
rfemur -17.5115 5.98351 29.7843
rtibia 41.9241
rfoot -16.7399 -7.72927
rtoes 1.05172
lfemur -16.9614 9.76473 -10.7659
ltibia 107.977
lfoot 13.2901 -10.1644
ltoes -12.0813
73
root 2.02432 17.2296 12.1943 3.5494 -4.48134 -3.02613
lowerback 18.0945 -1.76472 2.13165
upperback 2.27824 -1.76782 1.69574
thorax -7.69282 -0.893174 1.04273
lowerneck -1.5552 2.05544 -0.310503
upperneck -15.3366 2.74348 -0.100668
head -4.81814 1.36355 -0.0792815
rclavicle 7.42958e-015 -5.96354e-016
rhumerus -33.8907 10.4739 -87.8336
rradius 92.9943
rwrist -8.10456
rhand -34.2104 27.8662
rfingers 7.12502
rthumb -7.38266 -1.98498
lclavicle 7.42958e-015 -5.96354e-016
lhumerus -48.8143 -11.7761 95.5533
lradius 107.186
lwrist 30.8143
lhand -38.7713 16.5531
lfingers 7.12502
lthumb -11.7831 46.2017
rfemur -15.7158 5.35944 30.3181
rtibia 41.7952
rfoot -17.8033 -8.41674
rtoes -0.281012
lfemur -20.3402 9.11152 -10.2348
ltibia 109.657
lfoot 11.4926 -11.1751
ltoes -13.2673
74
root 2.01338 17.2015 12.6379 3.52493 -3.93266 -3.49385
lowerback 18.3669 -1.67743 2.40667
upperback 2.30642 -1.56979 1.91717
thorax -7.81209 -0.802223 1.08482
lowerneck -1.78315 1.80653 -0.219712
upperneck -15.0794 2.3837 -0.302602
head -4.67155 1.19191 -0.145773
rclavicle -1.61513e-015 -3.24019e-014
rhumerus -31.9457 11.5144 -87.7513
rradius 94.4282
rwrist -8.09613
rhand -34.0762 27.7365
rfingers 7.12502
rthumb -7.25311 -2.11922
lclavicle -1.61513e-015 -3.24019e-014
lhumerus -49.8522 -10.9838 95.6087
lradius 106.861
lwrist 31.5262
lhand -39.5802 18.6258
lfingers 7.12502
lthumb -12.563 48.2281
rfemur -13.6674 4.93004 30.9658
rtibia 41.3347
rfoot -19.2518 -8.17555
rtoes -4.14705
lfemur -23.5138 8.74177 -9.60836
ltibia 110.824
lfoot 9.71097 -12.4949
ltoes -16.3093
75
root 2.00422 17.2065 13.098 3.73453 -4.18279 -3.81855
lowerback 18.6989 -1.2631 2.39755
upperback 2.05967 -0.994824 2.05258
thorax -8.25883 -0.524846 1.1073
lowerneck -2.34731 1.55242 -0.00585588
upperneck -14.1667 2.01492 -0.564096
head -4.21921 1.01176 -0.245344
rclavicle 1.07841e-014 -6.85807e-015
rhumerus -30.3359 12.3769 -87.6884
rradius 95.8907
rwrist -7.99871
rhand -33.5559 27.592
rfingers 7.12502
rthumb -6.75082 -2.28036
lclavicle 1.07841e-014 -6.85807e-015
lhumerus -51.2644 -10.3777 95.7379
lradius 106.412
lwrist 31.9828
lhand -39.145 16.566
lfingers 7.12502
lthumb -12.1434 46.1935
rfemur -11.6813 5.12446 31.3202
rtibia 40.4981
rfoot -19.3167 -7.89146
rtoes -5.73216
lfemur -27.0275 9.00085 -9.48821
ltibia 111.275
lfoot 8.9387 -13.9672
ltoes -18.3665
76
root 1.99776 17.2341 13.6001 4.31209 -5.17015 -4.36001
lowerback 17.8783 -0.552175 2.62096
upperback 2.01645 -0.0441748 2.1148
thorax -7.85479 -0.0736758 0.796681
lowerneck -2.99676 1.21232 0.218298
upperneck -13.288 1.54576 -0.703958
head -3.77687 0.774743 -0.305322
rclavicle -3.8266e-015 6.85807e-015
rhumerus -28.6834 13.0901 -87.5093
rradius 97.5568
rwrist -7.78516
rhand -32.5739 26.402
rfingers 7.12502
rthumb -5.80279 -3.49858
lclavicle -3.8266e-015 6.85807e-015
lhumerus -52.5227 -10.1904 95.9653
lradius 106.523
lwrist 33.0847
lhand -38.4214 15.7785
lfingers 7.12502
lthumb -11.4457 45.4461
rfemur -9.79284 5.97127 31.8085
rtibia 39.3454
rfoot -18.9488 -7.09108
rtoes -6.85877
lfemur -30.2735 9.87836 -9.26772
ltibia 110.973
lfoot 8.42368 -15.4818
ltoes -17.042
77
root 1.99142 17.2846 14.123 4.86197 -5.96196 -4.80844
lowerback 16.9853 0.123135 2.93369
upperback 1.91495 0.85994 2.01551
thorax -7.46143 0.353987 0.295761
lowerneck -3.47341 0.844891 0.548556
upperneck -12.5414 1.06105 -0.632216
head -3.42516 0.517446 -0.320184
rclavicle -1.963e-015 -1.2424e-014
rhumerus -27.346 13.595 -87.3388
rradius 99.2696
rwrist -7.38184
rhand -31.9626 25.0002
rfingers 7.12502
rthumb -5.21265 -4.91565
lclavicle -1.963e-015 -1.2424e-014
lhumerus -53.7715 -10.3099 96.019
lradius 106.701
lwrist 34.304
lhand -38.1066 14.7073
lfingers 7.12502
lthumb -11.142 44.3915
rfemur -7.64077 6.72645 32.1969
rtibia 37.9432
rfoot -18.1254 -6.6086
rtoes -8.7278
lfemur -32.9994 10.3021 -9.23002
ltibia 109.985
lfoot 7.7029 -16.8336
ltoes -15.6042
78
root 1.97718 17.354 14.5798 4.61524 -5.82358 -4.91362
lowerback 18.008 0.477025 2.95653
upperback 1.61182 1.37314 1.84293
thorax -8.34127 0.584708 -0.0317144
lowerneck -3.52329 0.528268 0.710029
upperneck -12.0808 0.674576 -0.243135
head -3.25854 0.307475 -0.212136
rclavicle -3.22777e-014 1.95803e-014
rhumerus -26.6709 13.7455 -87.3869
rradius 101
rwrist -6.67443
rhand -32.7473 25.4772
rfingers 7.12502
rthumb -5.97021 -4.41866
lclavicle -3.22777e-014 1.95803e-014
lhumerus -55.2192 -10.3924 95.969
lradius 106.949
lwrist 35.2874
lhand -39.7873 24.0738
lfingers 7.12502
lthumb -12.7628 53.6637
rfemur -5.04847 6.72951 32.3832
rtibia 36.6413
rfoot -17.0271 -6.47277
rtoes -11.1068
lfemur -35.3612 9.3696 -9.5632
ltibia 108.586
lfoot 7.49287 -17.7761
ltoes -14.8139
